<?xml version="1.0" encoding="UTF-8"?>
<svg width="84px" height="84px" viewBox="0 0 84 84" version="1.1" xmlns="http://www.w3.org/2000/svg" xmlns:xlink="http://www.w3.org/1999/xlink">
    <g id="Welcome" stroke="none" stroke-width="1" fill="none" fill-rule="evenodd">
        <g id="9085_1.1_hp-copy-3" transform="translate(-70.000000, -70.000000)" fill="#DBDCE1">
            <g id="final-logo" transform="translate(70.000000, 70.000000)">
                <g id="Group-45">
                    <path d="M41.803513,2.49029565 C20.1254261,2.49029565 2.49029565,20.1254261 2.49029565,41.803513 C2.49029565,63.4803826 20.1254261,81.115513 41.803513,81.115513 C63.4803826,81.115513 81.1167304,63.4803826 81.1167304,41.803513 C81.1167304,20.1254261 63.4803826,2.49029565 41.803513,2.49029565 M41.803513,83.6062957 C18.7522087,83.6062957 0.000730434783,64.8536 0.000730434783,41.803513 C0.000730434783,18.7522087 18.7522087,0.000730434783 41.803513,0.000730434783 C64.8536,0.000730434783 83.6062957,18.7522087 83.6062957,41.803513 C83.6062957,64.8536 64.8536,83.6062957 41.803513,83.6062957" id="Fill-1"></path>
                    <path d="M76.2917217,41.1144696 C76.2588522,41.0122087 76.1626783,40.9428174 76.0555478,40.9428174 L74.1552,40.9428174 L73.5672,39.1362087 C73.5014609,38.9304696 73.1605913,38.9304696 73.0936348,39.1362087 L72.5068522,40.9428174 L70.6065043,40.9428174 C70.4981565,40.9428174 70.4032,41.0122087 70.369113,41.1144696 C70.3362435,41.2167304 70.3727652,41.3299478 70.4604174,41.3932522 L71.9979826,42.5096 L71.4099826,44.3174261 C71.377113,44.419687 71.4136348,44.5329043 71.5000696,44.5949913 C71.5877217,44.659513 71.7058087,44.659513 71.7934609,44.5949913 L73.3310261,43.4786435 L74.8685913,44.5949913 C74.9112,44.6278609 74.9635478,44.643687 75.0146783,44.643687 C75.0658087,44.643687 75.1169391,44.6278609 75.1607652,44.5949913 C75.2484174,44.5329043 75.2849391,44.419687 75.2508522,44.3174261 L74.6640696,42.5096 L76.2016348,41.3932522 C76.289287,41.3299478 76.3245913,41.2167304 76.2917217,41.1144696" id="Fill-3"></path>
                    <path d="M13.0954783,40.9426957 L11.1951304,40.9426957 L10.6083478,39.136087 C10.5413913,38.9303478 10.2017391,38.9303478 10.1347826,39.136087 L9.54678261,40.9426957 L7.64643478,40.9426957 C7.53930435,40.9426957 7.44313043,41.012087 7.41026087,41.1143478 C7.37617391,41.2178261 7.41391304,41.3298261 7.50034783,41.3931304 L9.03791304,42.5106957 L8.45113043,44.3173043 C8.41704348,44.4195652 8.45356522,44.5327826 8.54121739,44.5948696 C8.62886957,44.6593913 8.74695652,44.6593913 8.8346087,44.5948696 L10.3709565,43.4785217 L11.9085217,44.5948696 C11.9523478,44.6277391 12.0034783,44.6435652 12.0546087,44.6435652 C12.1069565,44.6435652 12.1568696,44.6277391 12.201913,44.5948696 C12.2883478,44.5327826 12.3248696,44.4195652 12.292,44.3173043 L11.704,42.5106957 L13.2415652,41.3931304 C13.3292174,41.3298261 13.3657391,41.2178261 13.3328696,41.1143478 C13.2987826,41.012087 13.2038261,40.9426957 13.0954783,40.9426957" id="Fill-5"></path>
                    <path d="M25.1404696,19.703113 C25.4399478,20.1206783 25.5884696,20.6125043 25.6128174,21.1542435 C25.6578609,22.2608522 25.3596,22.3850261 24.6072522,23.1665913 C24.1823826,23.5999826 23.7100348,23.8629391 23.1987304,23.9664174 C22.8809913,24.0212 22.609513,24.0333739 22.385513,23.9798087 C21.7049913,23.8057217 21.1632522,23.5464174 20.7481217,23.2140696 C20.5618609,23.0594609 20.2562957,22.8001565 20.4705565,22.5384174 C20.8029043,22.1220696 21.0390783,21.8384174 21.1681217,21.7203304 C21.3921217,21.4926783 21.5394261,21.4865913 21.8364696,21.6679826 C21.8583826,21.691113 21.9241217,21.7166783 22.0117739,21.787287 C22.1761217,21.8956348 22.2649913,21.9443304 22.4317739,22.0076348 C22.9211652,22.1622435 23.2742087,22.0758087 23.5030783,21.7349391 C23.7185565,21.4050261 23.6710783,20.8839826 23.3801217,20.5686783 C22.7543826,19.8662435 22.4110783,19.9879826 21.2289913,19.9295478 L21.0269043,19.9210261 L20.3950783,20.5053739 C20.2526435,20.6563304 20.0079478,20.5796348 19.9592522,20.3860696 L19.8436,19.8845043 L19.2129913,19.8589391 C18.0893391,19.7700696 17.1726435,19.2928522 16.5067304,18.4540696 C15.733687,17.475287 15.7032522,16.2907652 16.2790783,15.4118087 C17.6011652,13.3885043 19.4333391,13.823113 20.4583826,14.6996348 C20.6117739,14.8177217 20.6178609,14.943113 20.5436,15.0977217 C20.3244696,15.4945913 20.073687,15.8342435 19.7924696,16.0935478 C19.6524696,16.2238087 19.5051652,16.2518087 19.3396,16.1653739 L18.941513,15.9693739 C18.0881217,15.6078087 17.4916,16.3954609 18.0150783,17.127113 C18.3669043,17.6262435 18.8964696,17.9184174 19.6159478,17.9926783 C19.6938609,18.007287 20.0091652,18.0194609 20.1771652,18.0377217 L20.7396,17.519113 C20.8917739,17.3778957 21.1267304,17.4448522 21.1632522,17.6493739 L21.2509043,18.0024174 C21.6343826,17.995113 21.8705565,17.9926783 22.3088174,18.0438087 C23.5322957,18.1728522 24.4684696,18.7401565 25.1404696,19.703113" id="Fill-7"></path>
                    <path d="M29.4892348,13.243513 C29.5440174,13.3409043 29.5330609,13.4200348 29.4868,13.5003826 L29.1094087,14.1309913 L31.1144522,17.7222957 C31.5271478,18.4600348 31.5003652,18.5111652 30.7492348,18.9299478 C30.5130609,19.0626435 30.3316696,19.163687 30.1989739,19.219687 C29.8361913,19.3864696 29.7059304,19.0565565 29.4965391,18.6816 L28.1294087,16.267513 C27.996713,16.0313391 27.8749739,15.8438609 27.7556696,15.7282087 C27.4257565,15.4007304 26.8584522,15.7902957 26.4713217,16.043513 C26.0829739,16.2967304 26.3264522,16.6363826 26.5443652,17.0247304 L27.9589739,19.5581217 C28.3241913,20.2118609 28.2998435,20.2982957 27.6181043,20.6793391 C27.1457565,20.9447304 26.916887,21.0908174 26.7428,21.0409043 C26.5833217,20.983687 26.4822783,20.803513 26.2022783,20.3019478 L24.2666261,16.8372522 L23.5313217,16.8287304 C23.4375826,16.8250783 23.3657565,16.7934261 23.3109739,16.6960348 C23.264713,16.6120348 23.2671478,16.519513 23.3134087,16.4391652 L23.6908,15.8073391 L21.6236696,12.1064696 C21.428887,11.7582957 21.3485391,11.547687 21.3777565,11.4393391 C21.4483652,11.2372522 22.2895826,10.7831652 22.5695826,10.6638609 C22.9615826,10.4812522 23.0845391,10.8330783 23.3182783,11.2506435 L24.608713,13.5600348 C24.8570609,14.0056 24.984887,14.3002087 25.2234957,14.3671652 C25.476713,14.4268174 25.9636696,14.1553391 26.2935826,13.8972522 C26.6880174,13.6221217 26.4189739,13.2057739 26.1937565,12.8028174 L25.5022783,11.5647304 C25.1991478,11.0217739 24.9654087,10.6042087 24.8229739,10.3181217 C24.6294087,9.96994783 24.5478435,9.75933913 24.5794957,9.6509913 C24.6342783,9.4562087 25.476713,9.00333913 25.756713,8.88281739 C26.1474957,8.70142609 26.2716696,9.05325217 26.4737565,9.41481739 L28.5335826,13.1022957 L29.268887,13.1108174 C29.3626261,13.1144696 29.4429739,13.1607304 29.4892348,13.243513" id="Fill-9"></path>
                    <path d="M34.977113,14.3116522 L33.5978087,9.10486957 C33.5405913,8.88817391 33.465113,8.72747826 33.3774609,8.58626087 C32.9306783,7.896 31.8155478,8.29043478 31.9153739,9.10486957 C31.925113,9.20104348 31.965287,9.35565217 32.0310261,9.60156522 L33.3616348,14.6245217 C33.4432,14.9325217 33.5198957,15.1589565 33.6136348,15.266087 C34.0275478,15.8321739 34.9259826,15.6106087 35.0392,14.9215652 C35.0647652,14.7669565 35.0428522,14.5575652 34.977113,14.3116522 M36.977287,11.094087 C37.0016348,11.1866087 36.9870261,11.2572174 36.9103304,11.3436522 L36.3880696,11.8598261 L36.9054609,13.7516522 C36.9505043,13.9208696 37.0101565,14.3335652 37.0552,14.9970435 C37.0758957,15.1406957 37.0466783,15.2794783 37.0065043,15.4389565 C36.3077217,17.717913 33.7183304,18.2718261 32.2416348,16.6843478 C31.9677217,16.3946087 31.7838957,16.0147826 31.6548522,15.5217391 L31.0583304,13.272 L30.3485913,13.0808696 C30.2390261,13.0443478 30.1915478,12.9907826 30.1672,12.8982609 C30.1392,12.789913 30.1538087,12.7205217 30.229287,12.6353043 L30.7515478,12.1166957 C30.469113,10.9881739 30.2378087,10.1761739 30.1233739,9.74521739 C29.8518957,8.84434783 30.0795478,7.95930435 30.8014609,7.07547826 C30.9487652,6.888 31.0985043,6.76626087 31.2908522,6.68226087 C32.4583304,6.1746087 33.2739826,6.14052174 34.0847652,6.58486957 C34.8906783,7.0146087 35.3228522,7.84 35.5395478,8.65565217 L36.0825043,10.7045217 L36.7922435,10.8956522 C36.8969391,10.9175652 36.9480696,10.9869565 36.977287,11.094087" id="Fill-11"></path>
                    <path d="M46.2485739,10.321287 L46.2290957,10.4478957 L46.7635304,10.7644174 C46.8414435,10.8301565 46.8877043,10.8946783 46.8852696,10.9908522 C46.8828348,11.1028522 46.8341391,11.1649391 46.7525739,11.2270261 L45.9929217,11.6385043 L45.9381391,11.9245913 C45.8468348,12.4164174 45.5717043,13.877287 45.2210957,15.8616348 C45.2198783,15.893287 45.2186609,15.9261565 45.2028348,15.9565913 L45.2004,16.0527652 C45.1273565,16.4338087 45.0299652,16.5275478 44.662313,16.5336348 C44.3275304,16.5263304 43.9610957,16.5165913 43.5946609,16.4922435 C43.3560522,16.4703304 43.2477043,16.3558957 43.2209217,16.1318957 C43.1965739,15.8129391 43.1442261,15.3649391 43.0614435,14.8207652 C42.9652696,14.1804174 42.8958783,13.7640696 42.870313,13.5084174 C42.8313565,13.1407652 42.7741391,12.8522435 42.7157043,12.6428522 C42.6548348,12.5296348 42.5111826,12.5113739 42.4137913,12.6197217 C42.3480522,12.6818087 42.2957043,12.857113 42.2421391,13.0945043 C42.0351826,14.397113 41.8866609,15.2699826 41.8124,15.6826783 C41.6833565,16.4301565 41.6334435,16.4593739 40.8689217,16.441113 C40.4075304,16.4301565 39.8791826,16.5129391 39.8097913,16.033287 L39.6174435,14.8000696 C39.5200522,14.2084174 39.3593565,12.9289391 39.1560522,11.4729391 L38.4170957,11.0237217 C38.3233565,10.9579826 38.2929217,10.8934609 38.2953565,10.7814609 C38.2977913,10.6865043 38.3318783,10.6232 38.4292696,10.561113 L38.978313,10.2713739 C38.7360522,8.44772174 38.542487,7.18406957 38.3647478,5.95206957 C38.2551826,5.26302609 38.3842261,5.17050435 39.0209217,5.20215652 L39.2765739,5.20824348 L39.2765739,5.22406957 C40.0410957,5.24354783 40.2188348,5.15102609 40.2711826,5.59902609 L40.5037043,7.21572174 C40.5292696,7.45554783 40.6364,8.33450435 40.6911826,8.70337391 C40.7179652,8.87867826 40.7788348,8.97606957 40.8908348,9.01137391 C40.9857913,9.04546087 41.1318783,8.90546087 41.1525739,8.71433043 C41.2256174,8.36615652 41.3570957,7.50667826 41.3777913,7.34841739 C41.5250957,6.5072 41.6188348,5.93502609 41.6906609,5.61850435 C41.7271826,5.41154783 41.8586609,5.28737391 42.0814435,5.29224348 C42.4004,5.28372174 42.798487,5.29467826 43.2598783,5.32146087 C43.738313,5.34946087 43.7930957,6.38667826 43.7906609,6.4658087 C43.8454435,6.85050435 43.9769217,7.98633043 44.0450957,8.46598261 C44.0426609,8.54633043 44.0718783,8.67293913 44.1315304,8.83485217 C44.2057913,9.09172174 44.4930957,9.06615652 44.5466609,8.81293913 C44.674487,8.16285217 44.7487478,7.71728696 44.9009217,6.74824348 C44.9557043,6.39885217 45.010487,6.1298087 45.0640522,5.90702609 C45.1565739,5.4152 45.2210957,5.36893913 45.7311826,5.36528696 C46.0817913,5.3738087 46.4007478,5.38111304 46.6868348,5.40424348 C46.9899652,5.41154783 47.082487,5.55763478 47.042313,5.85954783 C47.0398783,5.95572174 46.9680522,6.31972174 46.8560522,6.97102609 C46.4871826,9.01989565 46.3204,9.98893913 46.2485739,10.321287" id="Fill-13"></path>
                    <path d="M59.6779826,16.2132174 C59.6280696,16.3130435 59.5562435,16.3483478 59.4637217,16.3544348 L58.7296348,16.3946087 L56.9035478,20.0078261 C56.7014609,20.405913 56.5432,20.7906087 56.1938087,20.6676522 C55.8030261,20.524 55.4329391,20.3365217 55.0701565,20.1003478 C54.7998957,19.9274783 54.9934609,19.6146087 55.1736348,19.2591304 L56.1085913,17.409913 C56.2802435,17.0690435 56.3605913,16.7695652 56.3825043,16.5126957 C56.3910261,16.4627826 56.369113,16.4347826 56.3265043,16.4128696 C56.2838957,16.3909565 56.2485913,16.3909565 56.2047652,16.4055652 C56.1122435,16.4469565 55.9832,16.5613913 55.8334609,16.7525217 L54.7865043,18.081913 C54.4432,18.5153043 54.1778087,18.8269565 53.9915478,19.0546087 C53.8698087,19.1897391 53.7553739,19.2749565 53.6689391,19.3029565 C53.5058087,19.3443478 53.0578087,19.1361739 52.673113,18.906087 C52.3955478,18.7490435 52.3468522,18.6346087 52.4259826,18.3351304 C52.5270261,17.9224348 52.7668522,16.918087 52.8106783,16.6904348 C52.9993739,15.9636522 53.1308522,15.3866087 53.2318957,14.973913 C53.2465043,14.874087 53.261113,14.7389565 53.2684174,14.5466087 C53.2696348,14.4029565 53.0992,14.3883478 53.0565913,14.4382609 C52.9701565,14.5027826 52.8557217,14.6586087 52.7327652,14.8996522 L51.5105043,17.3186087 C51.3096348,17.7166957 51.1647652,18.0733913 50.781287,17.9504348 C50.4245913,17.8067826 50.069113,17.6266087 49.7282435,17.4184348 C49.4080696,17.2029565 49.6016348,16.9253913 49.8390261,16.4566957 L51.6724174,12.8288696 L51.2682435,12.214087 C51.2195478,12.1349565 51.2049391,12.0558261 51.2560696,11.9572174 C51.2986783,11.872 51.3778087,11.822087 51.4703304,11.8147826 L52.2044174,11.7746087 L54.0597217,8.1053913 C54.2678957,7.69147826 54.4042435,7.31530435 54.7682435,7.48086957 L56.5042435,8.3573913 C56.6600696,8.43652174 56.7233739,8.59356522 56.6722435,8.80052174 L56.3764174,9.88278261 L55.2247652,13.9987826 C55.2028522,14.0766957 55.1809391,14.2264348 55.1517217,14.426087 C55.1225043,14.6257391 55.3075478,14.7547826 55.5218087,14.5770435 C55.5498087,14.5563478 55.5790261,14.5344348 55.6082435,14.4772174 L56.8840696,12.8008696 C57.4075478,12.1191304 57.837287,11.5493913 58.1672,11.1452174 C58.2743304,11.0027826 58.4033739,10.8177391 58.5896348,10.5913043 C59.0266783,10.0081739 59.1350261,9.688 59.5623304,9.90347826 C60.2099826,10.2126957 60.7505043,10.4853913 61.1838957,10.7227826 C61.561287,10.9321739 61.3312,11.2438261 61.1230261,11.6565217 L59.2616348,15.3415652 L59.6645913,15.9563478 C59.7145043,16.0354783 59.7218087,16.128 59.6779826,16.2132174" id="Fill-15"></path>
                    <path d="M60.8722435,24.3932348 C60.5934609,24.6561913 60.329287,24.3761913 60.0809391,24.1521913 L57.5122435,21.836713 C57.3466783,21.6869739 57.1445913,21.5055826 57.1226783,21.3144522 C57.1019826,21.1233217 57.2529391,20.980887 57.6473739,20.5426261 L60.2830261,17.6184522 L60.0553739,16.9184522 C60.0273739,16.8295826 60.0346783,16.7504522 60.1101565,16.6676696 C60.1734609,16.5970609 60.2623304,16.5690609 60.3536348,16.5873217 L61.073113,16.7419304 L63.8585043,13.6509739 C64.3917217,13.0593217 64.4245913,13.0471478 65.005287,13.5694087 L67.5618087,15.8739304 C67.8345043,16.1198435 67.9562435,16.2939304 67.973287,16.3949739 C67.9830261,16.5970609 67.4388522,17.1789739 67.1685913,17.4297565 C66.8885913,17.692713 66.6621565,17.4443652 66.3188522,17.1351478 L65.1465043,16.0784522 C64.7447652,15.7388 64.5317217,15.760713 64.1774609,16.1064522 C63.8025043,16.4984522 63.4506783,16.8892348 63.1329391,17.2897565 C62.9941565,17.4431478 62.9345043,17.6038435 62.9296348,17.7292348 C62.9539826,17.9873217 63.2254609,18.2101043 63.593113,18.5412348 C63.7818087,18.7116696 63.9242435,18.8394957 63.9960696,18.9259304 C64.2809391,19.1815826 64.277287,19.328887 64.0325913,19.6234957 C63.8207652,19.8828 63.5967652,20.1323652 63.3484174,20.3600174 C63.1998957,20.5243652 63.0294609,20.5219304 62.8529391,20.3855826 C62.6654609,20.2358435 62.3927652,19.9911478 62.0494609,19.6819304 C61.5990261,19.2765391 61.4285913,19.2290609 60.945287,19.7172348 C60.665287,19.9801913 60.3767652,20.2991478 60.0590261,20.6765391 C59.7400696,21.0770609 59.7400696,21.2913217 60.1198957,21.6553217 L61.281287,22.7010609 C61.6258087,23.0334087 61.8948522,23.2111478 61.6842435,23.5154957 C61.4298087,23.8441913 61.1644174,24.1400174 60.8722435,24.3932348" id="Fill-17"></path>
                    <path d="M25.0423478,61.3298609 C25.0009565,61.4966435 24.8390435,61.5806435 24.5858261,61.681687 C22.7682609,62.4802957 21.2392174,63.1218609 20.0303478,63.6429043 L20.1033913,64.0300348 C20.1326087,64.133513 20.1070435,64.1992522 20.0254783,64.2747304 C19.9548696,64.3392522 19.8733043,64.369687 19.7746957,64.3319478 L19.0174783,64.0945565 C18.8786957,64.1785565 18.7386957,64.2844696 18.5974783,64.413513 C17.408087,65.5225565 16.596087,66.2651652 16.1505217,66.6510783 C15.5028696,67.241513 15.5028696,67.241513 14.9221739,66.6060348 L14.5350435,66.1836 C14.3426957,65.9486435 14.3487826,65.8147304 14.5508696,65.5858609 C14.6336522,65.5116 14.8345217,65.3058609 15.1985217,64.9722957 L16.9515652,63.3702087 C17.1974783,63.1669043 17.423913,62.9173391 17.6296522,62.5983826 L17.4726087,61.8131652 C17.4433913,61.7109043 17.4811304,61.6342087 17.5517391,61.5684696 C17.6345217,61.4942087 17.7026957,61.4747304 17.8025217,61.5124696 L18.2030435,61.6208174 C18.4367826,61.1910783 18.5986957,60.8721217 18.683913,60.7065565 L20.4795652,57.4013391 C20.5781739,57.2260348 20.6755652,57.0726435 20.7729565,56.9180348 C20.8447826,56.809687 21.0152174,56.7829043 21.1126087,56.865687 C21.5265217,57.2236 21.8807826,57.6119478 22.168087,58.0197739 C22.2411304,58.1463826 22.2338261,58.3046435 22.1242609,58.4909043 C22.000087,58.7343826 21.8150435,59.0752522 21.5825217,59.4818609 C21.4741739,59.6462087 21.1442609,60.2074261 21.0091304,60.4606435 C20.8983478,60.6469043 20.7632174,60.9001217 20.8813043,61.0303826 C20.9567826,61.1131652 21.0468696,61.1168174 21.1625217,61.053513 C21.3804348,60.9622087 21.6226957,60.8489913 21.9453043,60.7053391 C22.7633913,60.3242957 23.2929565,60.0783826 23.5802609,59.9663826 C23.7531304,59.8957739 23.9089565,59.9249913 24.0392174,60.0442957 C24.4263478,60.4679478 24.738,60.8088174 24.9632174,61.0778609 C25.0277391,61.1484696 25.0581739,61.2288174 25.0423478,61.3298609" id="Fill-19"></path>
                    <path d="M23.5806261,70.055513 L26.5681043,65.5730783 C26.6922783,65.3880348 26.762887,65.223687 26.8115826,65.0642087 C27.0319304,64.2729043 25.9971478,63.6982957 25.4541913,64.3130783 C25.3872348,64.383687 25.2995826,64.5163826 25.1583652,64.7294261 L22.2768,69.0523826 C22.1002783,69.3177739 21.9809739,69.5247304 21.962713,69.6671652 C21.8129739,70.3525565 22.5726261,70.8784696 23.1654957,70.5071652 C23.2981913,70.4219478 23.4394087,70.2673391 23.5806261,70.055513 M27.3155826,69.4224696 C27.2620174,69.5028174 27.2011478,69.5381217 27.0854957,69.5381217 L26.3526261,69.4894261 L25.278887,71.1292522 C25.1802783,71.2753391 24.9112348,71.5942957 24.4425391,72.0666435 C24.3500174,72.1774261 24.2258435,72.2480348 24.0809739,72.323513 C21.9103652,73.3096 19.778713,71.735513 19.9917565,69.5782957 C20.0270609,69.1814261 20.1901913,68.7918609 20.4726261,68.3669913 L21.7630609,66.4313391 L21.4355826,65.7727304 C21.3917565,65.6668174 21.4002783,65.5962087 21.4538435,65.5158609 C21.5159304,65.4233391 21.5768,65.3880348 21.6924522,65.3880348 L22.4265391,65.4367304 C23.0851478,64.4774261 23.5404522,63.7652522 23.7875826,63.3939478 C24.2830609,62.5941217 25.0962783,62.1777739 26.2357565,62.1339478 C26.4743652,62.1205565 26.6654957,62.1509913 26.8554087,62.2398609 C28.0094957,62.7791652 28.5743652,63.3671652 28.778887,64.2692522 C28.990713,65.1579478 28.6583652,66.0283826 28.190887,66.7308174 L27.014887,68.4948174 L27.3423652,69.1534261 C27.394713,69.2459478 27.3776696,69.3299478 27.3155826,69.4224696" id="Fill-21"></path>
                    <path d="M34.5014783,72.1276348 C34.4698261,72.2177217 34.4126087,72.2822435 34.3066957,72.2956348 L33.5628696,72.4380696 C33.2767826,73.2488522 32.9773043,74.1412 32.795913,74.651287 C32.5122609,75.5497217 31.8402609,76.1572 30.8213043,76.5053739 C30.7190435,76.5540696 30.6131304,76.5674609 30.512087,76.5662435 C29.0962609,76.5540696 27.9385217,75.9076348 27.4990435,74.5685043 C27.4430435,74.3457217 27.4065217,74.1132 27.4211304,73.8818957 C27.482,73.3279826 27.5769565,72.8714609 27.6986957,72.5257217 L28.3853043,70.5876348 L27.9068696,70.0288522 C27.8313913,69.9521565 27.8131304,69.8608522 27.846,69.7707652 C27.8825217,69.6660696 27.9494783,69.6210261 28.0553913,69.6088522 L28.7785217,69.4749391 L30.1724348,65.539113 C30.3002609,65.1787652 30.4098261,64.963287 30.512087,64.9145913 C30.73,64.823287 31.5809565,65.1422435 31.8706957,65.2785913 C32.2663478,65.4514609 32.0837391,65.7765043 31.8877391,66.3316348 L29.5990435,72.7923304 C29.519913,73.0175478 29.4505217,73.2135478 29.4066957,73.3839826 C29.2837391,73.7796348 29.3872174,74.4418957 29.9545217,74.5587652 C30.6727826,74.6780696 31.0124348,74.0547652 31.2571304,73.363287 L33.6091304,66.7224174 C33.8696522,65.9858957 33.8903478,65.9761565 34.6414783,66.2427652 C34.8971304,66.3328522 35.1369565,66.4180696 35.3414783,66.5069391 C35.6616522,66.6542435 35.4985217,67.0194609 35.3548696,67.4248522 L33.9767826,71.3156348 L34.4552174,71.8744174 C34.5294783,71.951113 34.5392174,72.0229391 34.5014783,72.1276348" id="Fill-23"></path>
                    <path d="M39.7865391,69.966887 C39.8060174,69.4568 39.6221913,69.2133217 39.1121043,69.0331478 C39.0025391,69.0063652 38.9404522,68.9844522 38.8783652,68.9625391 C38.0018435,68.7616696 38.1333217,69.2072348 38.0006261,70.5244522 C37.9300174,71.2220174 37.9020174,71.6675826 37.8983652,71.6992348 C37.8715826,71.9694957 37.9823652,72.1411478 38.242887,72.2470609 C38.8162783,72.4491478 39.406713,72.1557565 39.5917565,71.5811478 C39.6173217,71.4886261 39.6404522,71.4265391 39.642887,71.394887 L39.7865391,69.966887 Z M41.0781913,78.1562783 C41.0940174,78.3169739 40.9844522,78.450887 40.8079304,78.4484522 C40.3745391,78.4533217 39.8985391,78.4058435 39.378713,78.3206261 C39.0341913,78.2378435 39.0244522,77.8689739 38.9733217,77.414887 C38.9501913,77.1726261 38.8820174,76.7331478 38.7858435,76.098887 L38.6129739,74.7841043 C38.5801043,74.4761043 38.5423652,74.054887 38.0761043,74.0731478 C37.6098435,74.0901913 37.598887,74.5211478 37.5331478,75.0117565 L37.3079304,77.246887 C37.2592348,77.7241043 37.2860174,78.0941913 36.8416696,78.0661913 C36.4740174,78.0454957 36.0941913,78.0065391 35.7143652,77.9529739 C35.2882783,77.8933217 35.3905391,77.5195826 35.442887,76.9961043 L35.8482783,72.9665391 L35.2481043,72.5538435 C35.1750609,72.4832348 35.134887,72.4150609 35.1458435,72.3030609 C35.1555826,72.2081043 35.2115826,72.1338435 35.2955826,72.094887 L35.9663652,71.7929739 L36.3863652,67.6221913 C36.4253217,67.2253217 36.4813217,66.9903652 36.5689739,66.9197565 C36.7260174,66.790713 37.1825391,66.8686261 38.102887,66.9611478 L38.942887,67.0463652 C39.3409739,67.070713 39.7950609,67.1802783 40.2881043,67.3738435 C41.1244522,67.6660174 41.6832348,68.4755826 41.6260174,69.366713 C41.5980174,69.7964522 41.5042783,70.7326261 41.3411478,72.1898435 C41.3046261,72.5550609 41.1074087,72.9202783 40.7689739,73.2696696 C40.5194087,73.5180174 40.4378435,73.8454957 40.4938435,74.2521043 C40.5851478,74.7731478 40.7616696,75.8809739 41.0209739,77.6048 C41.0635826,77.8178435 41.0769739,78.0114087 41.0781913,78.1562783 L41.0781913,78.1562783 Z" id="Fill-25"></path>
                    <path d="M52.8027652,70.9607652 C52.8307652,71.0678957 52.8015478,71.1421565 52.7370261,71.209113 L52.2147652,71.7265043 L53.2641565,75.7025043 C53.4808522,76.5193739 53.443113,76.5632 52.6104174,76.7823304 C52.3486783,76.8517217 52.1478087,76.905287 52.0053739,76.9259826 C51.6121565,76.9965913 51.5683304,76.6459826 51.4587652,76.2296348 L50.7344174,73.5513739 C50.6650261,73.2896348 50.5932,73.0778087 50.5055478,72.9365913 C50.2681565,72.537287 49.6217217,72.7746783 49.1834609,72.9232 C48.7439826,73.0717217 48.8961565,73.4600696 49.0105913,73.8922435 L49.7519826,76.697113 C49.943113,77.4214609 49.8980696,77.4993739 49.143287,77.6990261 C48.6185913,77.8378087 48.3605043,77.9218087 48.2046783,77.8317217 C48.0646783,77.7367652 48.011113,77.537113 47.8650261,76.9819826 L46.8497217,73.1435478 L46.1399826,72.9524174 C46.051113,72.9268522 45.9878087,72.8769391 45.9598087,72.7685913 C45.9354609,72.6760696 45.9610261,72.5872 46.0267652,72.5214609 L46.5490261,72.0028522 L45.4655478,67.9038957 C45.363287,67.5179826 45.3377217,67.2939826 45.3937217,67.1965913 C45.5118087,67.0176348 46.4394609,66.7887652 46.7413739,66.741287 C47.1650261,66.6621565 47.1978957,67.0334609 47.3196348,67.4960696 L47.9965043,70.0538087 C48.1267652,70.5480696 48.1766783,70.8633739 48.3909391,70.9887652 C48.6210261,71.109287 49.1603304,70.9668522 49.5450261,70.7988522 C49.9954609,70.6308522 49.8372,70.1609391 49.7203304,69.7141565 L49.3575478,68.3421565 C49.199287,67.7407652 49.0763304,67.2793739 49.0105913,66.9665043 C48.9083304,66.5805913 48.8815478,66.3578087 48.9387652,66.2604174 C49.0410261,66.085113 49.9698957,65.8562435 50.2705913,65.8087652 C50.6954609,65.7296348 50.727113,66.1009391 50.8330261,66.5014609 L51.9128522,70.5858087 L52.6225913,70.7769391 C52.7114609,70.8037217 52.7784174,70.8682435 52.8027652,70.9607652" id="Fill-27"></path>
                    <path d="M56.5470957,69.0859826 C56.5957913,69.1858087 56.5799652,69.2637217 56.5300522,69.3416348 L56.1173565,69.9503304 L57.9519652,73.7181565 C58.3013565,74.4352 58.2794435,74.4632 57.5770087,74.805287 C57.3055304,74.9379826 57.1046609,75.0353739 56.9537043,75.0901565 C56.5531826,75.2496348 56.4217043,74.8710261 56.2269217,74.4705043 L54.4264,70.7745043 L53.6935304,70.7233739 C53.5864,70.7221565 53.5157913,70.6856348 53.4670957,70.5858087 C53.4257043,70.4993739 53.4330087,70.4068522 53.4975304,70.3228522 L53.9102261,69.7141565 L52.068313,65.9317217 C51.9015304,65.5872 51.8248348,65.3595478 51.8552696,65.2743304 C51.928313,65.061287 52.8011826,64.6717217 53.0811826,64.5524174 C53.4877913,64.4075478 53.5839652,64.7496348 53.8213565,65.2378087 L55.6011826,68.8912 L56.3340522,68.941113 C56.4265739,68.9496348 56.504487,68.9995478 56.5470957,69.0859826" id="Fill-29"></path>
                    <path d="M59.2785565,61.4517217 C59.4660348,61.7098087 59.6060348,61.9033739 59.6669043,62.0153739 C59.7521217,62.1322435 59.7825565,62.2284174 59.7801217,62.3087652 C59.7423826,62.473113 59.5609913,62.6033739 59.329687,62.7713739 C59.0716,62.9588522 58.7903826,63.1426783 58.7477739,63.409287 C58.6954261,63.6625043 58.8670783,63.873113 59.2310783,64.377113 L60.3340348,65.9000696 L61.1350783,65.8124174 C61.2373391,65.817287 61.3128174,65.8404174 61.3688174,65.9183304 C61.4345565,66.0096348 61.4418609,66.1009391 61.4065565,66.1873739 L61.0717739,66.9214609 L63.3872522,70.1232 C63.7244696,70.5870261 63.977687,70.857287 63.6867304,71.1068522 C63.3604696,71.3625043 63.0366435,71.5962435 62.717687,71.8068522 C62.3731652,72.0369391 62.2002957,71.6899826 61.9202957,71.3028522 L59.5573391,68.0353739 L58.7209913,68.129113 C58.6272522,68.1376348 58.5554261,68.0925913 58.489687,68.001287 C58.433687,67.9233739 58.421513,67.8539826 58.449513,67.7553739 L58.8001217,66.9896348 L57.6143826,65.3498087 C57.2966435,64.9103304 57.1749043,64.7435478 56.965513,64.6985043 C56.7342087,64.6498087 56.4761217,64.8360696 56.2168174,65.0235478 C56.0756,65.1258087 55.9721217,65.201287 55.9112522,65.2256348 C55.6434261,65.3985043 55.5058609,65.3997217 55.3062087,65.1513739 C55.0980348,64.8896348 54.8825565,64.5925913 54.6804696,64.2858087 C54.6062087,64.1823304 54.5891652,64.0764174 54.6001217,64.0106783 C54.6366435,63.845113 54.8107304,63.7586783 55.1077739,63.5444174 L58.2072522,61.3019826 C58.8147304,60.8637217 58.8402957,60.8442435 59.2785565,61.4517217" id="Fill-31"></path>
                    <path d="M69.2369391,62.7041739 C69.5741565,63.0913043 69.7689391,63.566087 69.8444174,64.1041739 C69.9953739,65.2010435 69.709287,65.352 69.0336348,66.2029565 C68.6538087,66.674087 68.2082435,66.9808696 67.709113,67.1330435 C67.3974609,67.2182609 67.1284174,67.256 66.9007652,67.221913 C66.2068522,67.1147826 65.6419826,66.9090435 65.1976348,66.6168696 C64.9979826,66.4817391 64.669287,66.2504348 64.8567652,65.9692174 C65.1489391,65.5248696 65.357113,65.2193043 65.4739826,65.0890435 C65.6748522,64.8406957 65.8209391,64.8212174 66.1338087,64.9733913 C66.1581565,64.9953043 66.2263304,65.0135652 66.3200696,65.0768696 C66.4953739,65.1681739 66.5866783,65.2083478 66.7595478,65.2558261 C67.261113,65.3629565 67.6044174,65.2424348 67.7992,64.882087 C67.9830261,64.533913 67.8868522,64.0201739 67.5666783,63.7328696 C66.8776348,63.0937391 66.5465043,63.2471304 65.3644174,63.3006957 L65.1623304,63.3116522 L64.5877217,63.9532174 C64.4623304,64.1175652 64.2103304,64.064 64.1433739,63.8753043 L63.9814609,63.3883478 L63.3520696,63.4224348 C62.2235478,63.4394783 61.2654609,63.0523478 60.5228522,62.2805217 C59.6609391,61.3808696 59.517287,60.2036522 60.0078957,59.2735652 C61.1315478,57.1346087 62.9965913,57.3926957 64.1007652,58.1669565 C64.2638957,58.2716522 64.2821565,58.3946087 64.2225043,58.5553043 C64.0423304,58.9716522 63.8256348,59.3332174 63.5712,59.618087 C63.4433739,59.7617391 63.2985043,59.8031304 63.1256348,59.7337391 L62.7105043,59.5754783 C61.8266783,59.2966957 61.3080696,60.1391304 61.8985043,60.8172174 C62.2965913,61.2810435 62.8517217,61.5208696 63.5748522,61.5257391 C63.6539826,61.5330435 63.9680696,61.5147826 64.1385043,61.5172174 L64.6485913,60.9474783 C64.7861565,60.7928696 65.0259826,60.8366957 65.0819826,61.0363478 L65.2025043,61.3796522 C65.5847652,61.3358261 65.8197217,61.3114783 66.2604174,61.3212174 C67.4912,61.3333913 68.4760696,61.8093913 69.2369391,62.7041739" id="Fill-33"></path>
                    <path d="M69.870713,56.7473565 C69.7940174,56.7473565 69.714887,56.7290957 69.6430609,56.6913565 C69.3983652,56.5659652 69.3021913,56.2652696 69.4288,56.0205739 C70.4538435,54.0337913 71.2658435,51.9362261 71.8404522,49.7838783 C71.9110609,49.5197043 72.1825391,49.3602261 72.4491478,49.4320522 C72.7157565,49.5026609 72.8728,49.7753565 72.8021913,50.0407478 C72.2093217,52.262487 71.3717565,54.4282261 70.3138435,56.4770957 C70.2249739,56.6487478 70.050887,56.7473565 69.870713,56.7473565" id="Fill-35"></path>
                    <path d="M14.4906087,58.1461391 C14.3177391,58.1461391 14.1509565,58.0572696 14.0596522,57.8977913 C12.9067826,55.9073565 11.9669565,53.7842261 11.2681739,51.5868348 C11.1841739,51.3238783 11.3290435,51.0450957 11.5907826,50.9610957 C11.8525217,50.8770957 12.1325217,51.0219652 12.2165217,51.2837043 C12.8946087,53.4129217 13.8052174,55.470313 14.9215652,57.3986609 C15.0591304,57.6372696 14.9775652,57.9416174 14.7401739,58.0791826 C14.6610435,58.1242261 14.5746087,58.1461391 14.4906087,58.1461391" id="Fill-37"></path>
                    <path d="M47.0296522,43.2900696 L40.2853043,47.183287 C39.1421739,47.8443304 37.7105217,47.0189391 37.7105217,45.6968522 L37.7105217,37.9104174 C37.7105217,36.5883304 39.1421739,35.7617217 40.2853043,36.4227652 L47.0296522,40.3159826 C48.174,40.9770261 48.174,42.6290261 47.0296522,43.2900696" id="Fill-39"></path>
                    <path d="M55.5550435,48.7113565 C55.5550435,49.7777913 54.7174783,50.3365739 53.8884348,50.3365739 C53.4574783,50.3365739 53.0484348,50.1941391 52.738,49.9348348 C52.380087,49.6353565 52.1816522,49.2007478 52.1816522,48.7113565 L52.1816522,42.378487 C52.1816522,42.1204 51.982,42.0826609 51.863913,42.0826609 C51.786,42.0826609 51.5327826,42.1033565 51.5327826,42.378487 L51.5327826,51.7767478 C51.5327826,52.8553565 50.6866957,53.4214435 49.8515652,53.4214435 C49.0115652,53.4214435 48.1606087,52.8553565 48.1606087,51.7767478 L48.1606087,49.2677043 C48.1606087,49.0084 47.9609565,48.9694435 47.8416522,48.9694435 C47.7649565,48.9694435 47.5117391,48.9913565 47.5117391,49.2677043 L47.5117391,53.8852696 C47.5117391,54.9638783 46.668087,55.5287478 45.8341739,55.5287478 C44.9905217,55.5287478 44.1383478,54.9638783 44.1383478,53.8852696 L44.1383478,52.1541391 C44.1383478,51.8826609 43.9131304,51.8534435 43.8169565,51.8534435 C43.7402609,51.8534435 43.4906957,51.8753565 43.4906957,52.1541391 L43.4906957,55.9791826 C43.4906957,57.0492696 42.651913,57.6092696 41.824087,57.6092696 C40.9974783,57.6092696 40.116087,57.038313 40.116087,55.9791826 L40.116087,52.1541391 C40.116087,51.9070087 39.948087,51.8558783 39.8068696,51.8558783 C39.7508696,51.8558783 39.4684348,51.870487 39.4684348,52.1541391 L39.4684348,53.8852696 C39.4684348,54.9650957 38.6235652,55.5299652 37.7884348,55.5299652 C36.9472174,55.5299652 36.0962609,54.9650957 36.0962609,53.8852696 L36.0962609,48.9037043 C36.0962609,48.6468348 35.8966087,48.6090957 35.7773043,48.6090957 C35.6993913,48.6090957 35.4461739,48.6297913 35.4461739,48.9037043 L35.4461739,51.7767478 C35.4461739,52.8565739 34.6013043,53.4214435 33.7661739,53.4214435 C32.9249565,53.4214435 32.074,52.8565739 32.074,51.7767478 L32.074,47.3466609 C32.074,47.0788348 31.85,47.0496174 31.7550435,47.0496174 C31.6771304,47.0496174 31.4251304,47.070313 31.4251304,47.3466609 L31.4251304,48.7113565 C31.4251304,49.7924 30.5790435,50.3572696 29.743913,50.3572696 C28.9136522,50.3572696 28.0724348,49.8045739 28.0529565,48.7490957 L28.0517391,48.7490957 L28.0517391,34.8951826 C28.0517391,34.2609217 28.3426957,33.8786609 28.5886087,33.6692696 C28.888087,33.4124 29.2898261,33.2699652 29.7171304,33.2699652 C30.5461739,33.2699652 31.4251304,33.8397043 31.4251304,34.8951826 L31.4251304,41.6139652 C31.4251304,41.8720522 31.6247826,41.9110087 31.7428696,41.9110087 C31.8390435,41.9110087 31.927913,41.8817913 31.9875652,41.8306609 C32.024087,41.7990087 32.074,41.7417913 32.074,41.6139652 L32.074,31.8310087 C32.074,30.7511826 32.920087,30.186313 33.7552174,30.186313 C34.5964348,30.186313 35.4461739,30.7511826 35.4461739,31.8310087 L35.4461739,34.5324 C35.4461739,34.8014435 35.6701739,34.8306609 35.7651304,34.8306609 C35.8430435,34.8306609 36.0950435,34.8087478 36.0950435,34.5324 L36.0950435,29.722487 C36.0950435,28.6438783 36.9386957,28.0790087 37.7738261,28.0790087 C38.6150435,28.0790087 39.4684348,28.6438783 39.4684348,29.722487 L39.4684348,31.6459652 C39.4684348,31.9174435 39.6936522,31.9466609 39.7898261,31.9466609 C39.8665217,31.9466609 40.116087,31.9247478 40.116087,31.6459652 L40.116087,27.6285739 C40.116087,26.5572696 40.9548696,25.9972696 41.7826957,25.9972696 C42.6105217,25.9972696 43.4906957,26.5694435 43.4906957,27.6285739 L43.4906957,31.6459652 C43.4906957,31.8930957 43.6586957,31.9442261 43.799913,31.9442261 C43.8571304,31.9442261 44.1383478,31.9296174 44.1383478,31.6459652 L44.1383478,29.722487 C44.1383478,28.6426609 44.9832174,28.0777913 45.8183478,28.0777913 C46.6595652,28.0777913 47.5117391,28.6426609 47.5117391,29.722487 L47.5117391,34.8964 C47.5117391,35.1520522 47.7113913,35.1910087 47.8294783,35.1910087 C47.9073913,35.1910087 48.1606087,35.1690957 48.1606087,34.8964 L48.1606087,31.8310087 C48.1606087,30.7511826 49.0054783,30.186313 49.8406087,30.186313 C50.6818261,30.186313 51.5327826,30.7511826 51.5327826,31.8310087 L51.5327826,36.4534435 C51.5327826,36.7212696 51.7567826,36.750487 51.8517391,36.750487 C51.9296522,36.750487 52.1816522,36.7285739 52.1816522,36.4522261 L52.1816522,34.8951826 C52.1816522,33.8153565 53.0277391,33.2492696 53.8628696,33.2492696 C54.7028696,33.2492696 55.5550435,33.8153565 55.5550435,34.8951826 L55.5550435,48.7113565 Z M41.8033913,20.8550087 C30.2515652,20.8550087 20.8545217,30.2520522 20.8545217,41.8038783 C20.8545217,53.354487 30.2515652,62.7527478 41.8033913,62.7527478 C53.354,62.7527478 62.7522609,53.354487 62.7522609,41.8038783 C62.7522609,30.2520522 53.354,20.8550087 41.8033913,20.8550087 L41.8033913,20.8550087 Z" id="Fill-41"></path>
                    <path d="M41.803513,63.7485739 C29.7026435,63.7485739 19.8588174,53.9047478 19.8588174,41.8038783 C19.8588174,29.7030087 29.7026435,19.8579652 41.803513,19.8579652 C53.9043826,19.8579652 63.7482087,29.7030087 63.7482087,41.8038783 C63.7482087,53.9047478 53.9043826,63.7485739 41.803513,63.7485739 M41.803513,19.1372696 C29.3057739,19.1372696 19.1381217,29.3061391 19.1381217,41.8038783 C19.1381217,54.3016174 29.3057739,64.4692696 41.803513,64.4692696 C54.3012522,64.4692696 64.4689043,54.3016174 64.4689043,41.8038783 C64.4689043,29.3061391 54.3012522,19.1372696 41.803513,19.1372696" id="Fill-43"></path>
                </g>
            </g>
        </g>
    </g>
</svg>