<svg width="34px" height="34px" viewBox="0 0 34 34" version="1.1" xmlns="http://www.w3.org/2000/svg" xmlns:xlink="http://www.w3.org/1999/xlink">
    <g id="Welcome" stroke="none" stroke-width="1" fill="none" fill-rule="evenodd">
        <g id="9085_1.1_hp-copy-3" transform="translate(-82.000000, -605.000000)" fill="#FFFFFF">
            <g id="Group-Copy" transform="translate(66.000000, 589.000000)">
                <g id="spotify_icon" transform="translate(16.500000, 16.500000)">
                    <path d="M26.18,14.5828571 C20.8776071,11.4339107 12.1314286,11.144375 7.06966071,12.6806429 C6.25664286,12.9273571 5.39707143,12.4685 5.15075,11.6556786 C4.90442857,10.8422679 5.36289286,9.98328571 6.17630357,9.73617857 C11.9868571,7.97244643 21.6462321,8.31305357 27.7504464,11.9365714 C28.4815536,12.3706786 28.7213929,13.3149107 28.2880714,14.0448393 C27.8543571,14.7759464 26.9093393,15.0169643 26.18,14.5828571 Z M26.0063571,19.2468571 C25.6343214,19.8504821 24.8450714,20.0398393 24.2422321,19.6691786 C19.8216071,16.9519821 13.0807679,16.1646964 7.85085714,17.7522321 C7.17258929,17.9571071 6.45641071,17.5748571 6.25035714,16.8977679 C6.04607143,16.2196964 6.42851786,15.5046964 7.10560714,15.2984464 C13.0799821,13.4854107 20.5071429,14.3634464 25.5844286,17.4837143 C26.1872679,17.8549643 26.3770179,18.6446071 26.0063571,19.2468571 Z M23.9935536,23.7260179 C23.6979286,24.2108036 23.0668036,24.3626429 22.5837857,24.0672143 C18.7210179,21.7063393 13.8590179,21.1732321 8.133125,22.4810536 C7.58135714,22.6075536 7.03135714,22.2618393 6.90544643,21.7100714 C6.77914286,21.1585 7.12367857,20.6085 7.676625,20.4825893 C13.9426964,19.0502321 19.3175714,19.666625 23.6533393,22.3160536 C24.13675,22.6112857 24.2889821,23.2428036 23.9935536,23.7260179 Z M16.4495179,-5.68434189e-14 C7.36489286,-5.68434189e-14 3.97903932e-13,7.36469643 3.97903932e-13,16.4493214 C3.97903932e-13,25.5349286 7.36489286,32.8990357 16.4495179,32.8990357 C25.5345357,32.8990357 32.8990357,25.5349286 32.8990357,16.4493214 C32.8990357,7.36469643 25.5345357,-5.68434189e-14 16.4495179,-5.68434189e-14 L16.4495179,-5.68434189e-14 Z" id="Spotify_Icon_RGB_Green"></path>
                </g>
            </g>
        </g>
    </g>
</svg>