<svg width="24px" height="20px" viewBox="0 0 24 20" version="1.1" xmlns="http://www.w3.org/2000/svg" xmlns:xlink="http://www.w3.org/1999/xlink">
    <defs>
        <polygon id="path-1" points="0 1.04712042e-05 23.989777 1.04712042e-05 23.989777 20 0 20"></polygon>
    </defs>
    <g id="Welcome" stroke="none" stroke-width="1" fill="none" fill-rule="evenodd">
        <g id="9085_1.1_hp" transform="translate(-48.000000, -734.000000)">
            <g id="twitter-icon" transform="translate(48.000000, 734.000000)">
                <g id="Group-3">
                    <mask id="mask-2" fill="white">
                        <use xlink:href="#path-1"></use>
                    </mask>
                    <g id="Clip-2"></g>
                    <path d="M7.5267983,20.0000105 C16.5855217,20.0000105 21.5387132,12.3036754 21.5387132,5.63351832 C21.5387132,5.41362304 21.5387132,5.19372775 21.5285004,4.98430366 C22.4885004,4.27226178 23.3259472,3.38220942 23.989777,2.36650262 C23.1114791,2.76440838 22.1616919,3.03665969 21.1608409,3.16231414 C22.1821174,2.53404188 22.9582877,1.54974869 23.3259472,0.366502618 C22.37616,0.942418848 21.3242451,1.36126702 20.2008409,1.59163351 C19.3021174,0.607340314 18.0255217,1.04712042e-05 16.6059472,1.04712042e-05 C13.8893515,1.04712042e-05 11.683394,2.26179058 11.683394,5.04713089 C11.683394,5.44503665 11.7242451,5.8324712 11.81616,6.19896335 C7.72084085,5.98953927 4.09530894,3.97906806 1.66467064,0.92147644 C1.24594723,1.66493194 1.00084085,2.53404188 1.00084085,3.45550785 C1.00084085,5.20419895 1.86892596,6.75393717 3.19658553,7.65446073 C2.38977702,7.63351832 1.63403234,7.40315183 0.970202553,7.02618848 L0.970202553,7.08901571 C0.970202553,9.53927749 2.6655217,11.5706911 4.92254298,12.0418953 C4.51403234,12.1570785 4.0748834,12.2199058 3.6255217,12.2199058 C3.30892596,12.2199058 3.00254298,12.1883874 2.69616,12.1256649 C3.31913872,14.1361361 5.13701106,15.5916335 7.29190468,15.6335183 C5.6067983,16.9843037 3.48254298,17.7905864 1.17445787,17.7905864 C0.77616,17.7905864 0.388074894,17.769644 -1.0212766e-05,17.717288 C2.1548834,19.1623141 4.74892596,20.0000105 7.5267983,20.0000105" id="Fill-1" fill="#1D2125" mask="url(#mask-2)"></path>
                </g>
            </g>
        </g>
    </g>
</svg>